<?xml version="1.0" encoding="utf-8"?>
<!-- Generator: Adobe Illustrator 22.1.0, SVG Export Plug-In . SVG Version: 6.00 Build 0)  -->
<svg version="1.1" id="Layer_1" xmlns="http://www.w3.org/2000/svg" xmlns:xlink="http://www.w3.org/1999/xlink" x="0px" y="0px"
	 viewBox="0 0 100 125" style="enable-background:new 0 0 100 125;" xml:space="preserve">
<path id="alpha" fill="#2E1E25" d="M87.6,84.9c-12.5-0.2-10.9-18.6-11.4-27.1c-0.2-2.6-0.4-5.3-0.7-8.1c3.9-11.9,6.5-24.4,8.4-36.6c0.6-4.2-9.9-2.3-10.4,1.3
	c-0.8,5.2-1.7,10.4-2.8,15.6c-2.7-6.6-6.8-12.5-12.8-16.8C44.8,4,28.6,11.6,19.3,22.5c-10.5,12.4-12.6,29-7.7,44.2
	C16,80.5,27.3,93.3,43,90.5c11.2-2,18.4-9.7,23.5-19c0.1,1.5,0.3,3,0.5,4.4c0.6,3.8,1.7,7.7,4.3,10.6c3,3.4,8,4.3,12.3,4.4
	c2.4,0,5.5-0.8,6.9-2.9C91.9,86,89.3,84.9,87.6,84.9z M57.3,70.1c-2.3,4.6-5.2,9.1-9.2,12.5c-4.4,3.7-10.4,2.2-14.9-1.3
	c-12.5-9.7-16.4-29.9-12-44.4C23.9,28.4,31.1,16,41,15.1c5.1-0.5,10,4.1,13,7.7c4.6,5.4,7.4,12.3,9.2,19.1c0.8,3.2,1.4,6.5,1.8,9.8
	C62.8,58,60.3,64.3,57.3,70.1z"/>
</svg>
