<?xml version="1.0" encoding="utf-8"?>
<!-- Generator: Adobe Illustrator 22.1.0, SVG Export Plug-In . SVG Version: 6.00 Build 0)  -->
<svg version="1.1" id="Layer_1" xmlns="http://www.w3.org/2000/svg" xmlns:xlink="http://www.w3.org/1999/xlink" x="0px" y="0px"
	 viewBox="0 0 100 125" style="enable-background:new 0 0 100 125;" xml:space="preserve">
<path id="bear" fill="#F1B3CF" d="M77.1,41.3c-1.7-4.9-4-9.5-6.1-14.2c-0.9-2-1.5-5.3-1.6-6.3c0-0.2-0.1-1.1,0-1.5c0.8-2.1,1.4-4.6,0.7-6.8
	c-0.3-0.9-1.5-1.7-2.4-2.1s-2.5-0.4-3.4-0.1c-1.7,0.7-2.6,2.2-3.8,3.6c-0.6,0.7-1.2,1.6-2.1,2c-0.7,0.3-1.5,0.3-2.3,0.3
	C50.6,16.1,46,16.1,42.5,16c-0.5,0-1.1,0-1.6-0.3c-0.6-0.4-0.7-1.2-0.9-1.8c-0.5-1.6-1.7-3.1-3.3-3.7c-1.6-0.7-6.5,3.7-6.3,5.4
	c0.2,1.5,0.8,2.9,1.5,4.3c0.2,0.3,0.2,0.7,0,1c-4.2,8.8-6.4,18.3-7.3,27.5c-0.3,2.7-0.4,5.4-0.9,8.1c-0.4,1.9-0.8,7.8-0.7,9.8
	c0.1,2.3,1.3,4.5,2.4,6.5c0.5,0.9,1,1.8,1.7,2.5c0.4,0.4,0.9,0.5,1.4,0.2c3.4-1.7,6.1-13.2,6.7-15.6c0.2-0.9,1.6-0.5,1.4,0.4
	c-0.6,2.9-3.4,13.6-6.8,16.2c-0.5,0.4-0.6,1-0.4,1.5c1.6,3,3.3,7.8,3.1,8.5c-0.3,0.6-0.4,1.4-0.1,2c0.1,0.5,0.6,0.7,1.1,0.8
	c7.7,0.2,8.5,0.4,12.6,0.4c0.3,0,0.6-0.1,0.9-0.4c0.4-0.4,0.8-1,1.1-1.4c0.9-1.3,1-2.7,1.6-4.1C50,83,51,83.2,51.1,84
	c0.2,1.3,0,2.6,0.3,3.8c0.2,0.8,0.7,1.3,1.2,1.7c0.2,0.1,0.4,0.1,0.5,0.1c1.2,0,2.5,0,4,0c2.3,0,4,0.5,6.2-0.4
	c0.3-0.1,2.2-2.3,2.9-3c2.3-2.5,2.3-3.4,4.2-6.2c0.5-0.8,0.5-1.9-0.3-2.5c-1.3-1.1-2.6-3.2-3.1-4.4c-0.5-1.3-0.4-2.8-0.4-4.2
	c0-2.6,0.1-5.2,0.1-7.8c0-0.9,1.4-0.9,1.4,0c0,2.9-0.2,5.9-0.1,8.8c0,1.4,0.9,5.5,2.4,6.2c0.1,0,0.2,0.1,0.3,0.1
	c1,0.5,2.2,0.2,2.8-0.7c1.5-2.2,2.7-4,2.9-4.4c0.9-2.4,1.8-7.3,2.4-10.8C79.7,54,79.2,47.5,77.1,41.3z M51.6,24.1
	c1.3,0,1.3,2.1,0,2.1S50.3,24.1,51.6,24.1z M46.9,23.9c1.3,0,1.3,2.1,0,2.1C45.6,26,45.6,23.9,46.9,23.9z M51.2,33.2
	c-1.1,0.9-2.9,2.1-4.1,0.8c-0.9-1-2.8-3.8-0.9-4.7c0.5-0.3,1.2-0.2,2.3-0.2c0.8,0,3.2,0.4,3.6,1C53,31.4,52.2,32.4,51.2,33.2z"/>
</svg>
