<?xml version="1.0" encoding="utf-8"?>
<!-- Generator: Adobe Illustrator 22.1.0, SVG Export Plug-In . SVG Version: 6.00 Build 0)  -->
<svg version="1.1" id="Layer_1" xmlns="http://www.w3.org/2000/svg" xmlns:xlink="http://www.w3.org/1999/xlink" x="0px" y="0px"
	 viewBox="0 0 1000 1250" style="enable-background:new 0 0 1000 1250;" xml:space="preserve">
<g>
	<path fill="#064932" d="M291,982c-15,8-33,2-40-13c-8-14-3-32,12-40c64-34,46-199,28-374c-13-118-26-241-14-338C293,86,351-1,504,17
		c10,2,21,4,32,8c32,11,64,34,86,66c23,33,35,75,29,126c-2,16-6,33-12,51c-6,15-12,30-20,44c23,10,44,26,63,46c28,31,50,73,61,118
		c12,45,14,93,2,137c-28,111-133,196-358,138c-10-2-17-9-21-18C371,851,358,946,291,982z M352,534c6,56,12,112,15,164
		c5-15,21-24,36-20c182,46,265-14,286-95c9-34,8-72-2-108c-9-35-25-68-47-92c-17-17-36-30-58-34c-12,13-24,23-36,32
		c-15,11-29,18-42,22c-19,5-36,4-50-6c-8-6-15-15-18-27c-3-11,1-23,9-30l0,0c38-35,76-52,112-55c11-15,21-33,27-52c5-14,8-27,10-39
		c4-34-4-63-19-84s-36-36-57-44c-7-2-13-4-20-4c-107-14-148,50-160,147C327,300,340,419,352,534z"/>
</g>
</svg>
