<?xml version="1.0" encoding="utf-8"?>
<!-- Generator: Adobe Illustrator 22.1.0, SVG Export Plug-In . SVG Version: 6.00 Build 0)  -->
<svg version="1.1" id="Layer_1" xmlns="http://www.w3.org/2000/svg" xmlns:xlink="http://www.w3.org/1999/xlink" x="0px" y="0px"
	 viewBox="0 0 91 113.8" style="enable-background:new 0 0 91 113.8;" xml:space="preserve">
<g>
	<g>
		<path id="brain" fill="#ffffff" d="M6.9,64.1c0.4,0.7,1.1,1.1,1.8,1.1h4.8v9.6c0,5.6,4.5,10.1,10.1,10.1h10.5v4.1c0,1.2,0.9,2.1,2.1,2.1
			c1.2,0,2.1-0.9,2.1-2.1v-4.1h5c1.2,0,2.1-0.9,2.1-2.1c0-1.2-0.9-2.1-2.1-2.1h-7.1h-1.4H23.6c-3.2,0-5.9-2.6-5.9-5.9V63
			c0-1.2-0.9-2.1-2.1-2.1h-3.2l7.7-13.4c0.2-0.3,0.3-0.7,0.3-1.1l0-0.4c0-0.3,0-0.6,0-0.9c0-15.1,12.3-27.5,27.5-27.5
			C63,17.6,75.3,30,75.3,45.1c0,7.3-2.8,14.1-7.9,19.3l-4.7,3.1c-1,0.6-1.2,2-0.6,2.9c0.4,0.6,1.1,0.9,1.7,0.9
			c0.4,0,0.8-0.1,1.2-0.4l1.6-1.1v18.9c0,1.2,0.9,2.1,2.1,2.1s2.1-0.9,2.1-2.1v-22c5.6-5.9,8.6-13.6,8.6-21.7
			c0-17.5-14.2-31.7-31.7-31.7c-17.5,0-31.7,14.2-31.7,31.7c0,0.3,0,0.5,0,0.8L6.9,62C6.5,62.6,6.5,63.4,6.9,64.1z"/>
		<path d="M64.6,47c4-1,6.9-4.6,6.9-9c0-4.4-3.1-8.2-7.1-9.1c-0.9-4.2-4.5-7.4-8.9-7.4c-2.8,0-5.3,1.3-7,3.4
			c-0.2-0.2-0.3-0.4-0.5-0.6c-1.7-1.8-4-2.8-6.4-2.8c-4.4,0-8,3.2-8.9,7.4c-4.1,0.9-7.1,4.6-7.1,9.1c0,4.4,2.9,8,6.9,9
			c1.6,2.9,4.6,4.9,7.9,4.9c3.4,0,6.3-1.9,8.1-4.5c1.8,2.6,4.7,4.5,8.1,4.5C60,51.9,63.1,50,64.6,47z M40.5,47.7
			c-1.5,0-2.9-0.7-3.8-1.9c0.1-0.2,0.1-0.4,0.1-0.6c0-1.2-0.9-2.1-2.1-2.1c-0.2,0-0.3,0-0.5,0c-2.5-0.3-4.4-2.4-4.4-5.1
			c0-2.1,1.3-4,3.1-4.7c0.5,1.8,1.4,3.4,2.8,4.6c0.9,0.8,2.2,0.7,3-0.2c0.8-0.9,0.7-2.2-0.2-3c-1.1-1-1.7-2.4-1.7-3.9
			c0-2.8,2.2-5.1,4.8-5.1c1.3,0,2.5,0.5,3.4,1.5c0.9,1,1.4,2.2,1.4,3.6v7.3c-0.7-1.1-1.6-3.1-2-4.3c-0.4-1.1-1.6-1.6-2.7-1.2
			c-1.1,0.4-1.6,1.6-1.2,2.7c0.1,0.4,0.6,1.6,1.2,2.9c-0.7,0.3-1.4,0.7-2.1,1.4c-0.9,0.8-0.9,2.1-0.1,3c0.4,0.5,1,0.7,1.6,0.7
			c0.5,0,1-0.2,1.4-0.6c0.6-0.5,1-0.7,1.6-0.8c0.6,0.6,1.2,1.1,1.8,1.5C45,45.7,42.9,47.7,40.5,47.7z M60.5,45.8
			c-0.9,1.2-2.3,1.9-3.8,1.9c-2.4,0-4.5-1.9-5.5-4.2c0.6-0.5,1.2-1,1.8-1.5c0.6,0.1,1.1,0.2,1.6,0.8c0.4,0.4,0.9,0.5,1.4,0.5
			c0.6,0,1.1-0.2,1.6-0.7c0.8-0.9,0.7-2.2-0.1-3c-0.7-0.6-1.4-1.1-2.1-1.4c0.6-1.3,1.1-2.5,1.2-2.9c0.4-1.1-0.1-2.3-1.2-2.7
			c-1.1-0.4-2.3,0.1-2.7,1.2c-0.5,1.2-1.4,3.3-2,4.3v-7.3c0-2.8,2.2-5.1,4.8-5.1s4.8,2.3,4.8,5.1c0,1.5-0.6,2.9-1.7,3.9
			c-0.9,0.8-0.9,2.1-0.2,3c0.8,0.9,2.1,0.9,3,0.2c1.4-1.2,2.3-2.8,2.8-4.6c1.8,0.7,3.1,2.6,3.1,4.7c0,2.6-1.9,4.8-4.4,5.1
			c-0.2,0-0.3,0-0.5,0c-1.2,0-2.1,1-2.1,2.1C60.4,45.4,60.4,45.6,60.5,45.8z"/>
		<path d="M49.5,6.4v-4c0-1.2-0.9-2.1-2.1-2.1c-1.2,0-2.1,0.9-2.1,2.1v4c0,1.2,0.9,2.1,2.1,2.1C48.6,8.5,49.5,7.5,49.5,6.4z"/>
		<path d="M61.8,11.4c0.8,0,1.6-0.5,1.9-1.2l1.6-3.7c0.5-1.1,0-2.3-1.1-2.8c-1.1-0.5-2.3,0-2.8,1.1l-1.6,3.7c-0.5,1.1,0,2.3,1.1,2.8
			C61.2,11.3,61.5,11.4,61.8,11.4z"/>
		<path d="M75.1,19.4l3-2.7c0.9-0.8,0.9-2.1,0.2-3c-0.8-0.9-2.1-0.9-3-0.2l-3,2.7c-0.9,0.8-0.9,2.1-0.2,3c0.4,0.5,1,0.7,1.6,0.7
			C74.2,19.9,74.7,19.7,75.1,19.4z"/>
		<path d="M81.2,32.5c0.2,0,0.4,0,0.7-0.1l3.8-1.2c1.1-0.4,1.7-1.5,1.3-2.7s-1.5-1.7-2.7-1.3l-3.8,1.2c-1.1,0.4-1.7,1.6-1.3,2.7
			C79.4,32,80.3,32.5,81.2,32.5z"/>
		<path d="M14.6,29.3l-3.8-1.2c-1.1-0.4-2.3,0.3-2.6,1.4s0.3,2.3,1.4,2.6l3.8,1.2c0.2,0.1,0.4,0.1,0.6,0.1c0.9,0,1.7-0.6,2-1.5
			C16.3,30.8,15.7,29.6,14.6,29.3z"/>
		<path d="M19.7,20.1c0.4,0.4,0.9,0.5,1.4,0.5c0.6,0,1.2-0.2,1.6-0.7c0.8-0.9,0.7-2.2-0.2-3l-3-2.7c-0.9-0.8-2.2-0.7-3,0.2
			c-0.8,0.9-0.7,2.2,0.2,3L19.7,20.1z"/>
		<path d="M32.8,11.8c0.3,0,0.6-0.1,0.9-0.2c1.1-0.5,1.5-1.7,1-2.8L33,5.1c-0.5-1.1-1.7-1.5-2.8-1c-1.1,0.5-1.5,1.7-1,2.8l1.7,3.7
			C31.2,11.3,32,11.8,32.8,11.8z"/>
	</g>
</g>
</svg>
