<?xml version="1.0" encoding="utf-8"?>
<!-- Generator: Adobe Illustrator 22.1.0, SVG Export Plug-In . SVG Version: 6.00 Build 0)  -->
<svg version="1.1" id="Layer_1" xmlns="http://www.w3.org/2000/svg" xmlns:xlink="http://www.w3.org/1999/xlink" x="0px" y="0px"
	 viewBox="0 0 100 125" style="enable-background:new 0 0 100 125;" xml:space="preserve">
<style type="text/css">
	.st0{fill:#AD87FF;}
</style>
<path class="st0" d="M74.4,61.9c1.9-2.5,3.8-6,5.9-9.7c2.5-4.5,5.1-9.2,7.6-11.9c0.6-0.6,0.8-1.5,0.5-2.3s-1-1.4-1.8-1.5
	c-0.5-0.1-13.3-1.9-19,6.6c-0.8,1.2-1.5,2.5-2.3,4l0,0c0.4-1.8,0.6-3.6,0.6-5.4C65.9,24.4,52.2,9,51.7,8.4c-0.4-0.5-1-0.7-1.7-0.7
	c-0.6,0-1.3,0.3-1.7,0.8C47.6,9.3,34,25.4,34,41.9c0,1.7,0.2,3.5,0.5,5.2c-0.8-1.4-1.5-2.8-2.3-3.9c-5.7-8.5-18.4-6.7-19-6.6
	c-0.8,0.1-1.5,0.7-1.8,1.5s-0.1,1.7,0.5,2.3c2.5,2.6,5.1,7.3,7.6,11.9c2,3.7,3.9,7.1,5.9,9.7c1.2,1.5,2.5,2.6,4,3.4
	c-0.1,0.1-0.2,0.1-0.3,0.2C25.3,68.3,24,72,22.6,76c-1,2.8-2.1,6-4.4,9.4c-0.5,0.7-0.5,1.6-0.1,2.4c0.4,0.7,1.1,1.1,2,1.1h0.1
	c0.5,0,12.4-0.7,19.5-7.9c0.5-0.5,1-1.1,1.5-1.8c2.2,6.8,6.7,11.9,7,12.1c0.4,0.5,1,0.7,1.7,0.7l0,0c0.6,0,1.3-0.3,1.7-0.8
	c0.2-0.3,4.7-5.5,6.9-12.2c0.5,0.6,1,1.3,1.5,1.8c7.1,7.1,19,7.8,19.5,7.9h0.1c0.8,0,1.5-0.4,2-1.1c0.4-0.7,0.4-1.6-0.1-2.4
	c-2.2-3.4-3.3-6.6-4.4-9.4c-1.4-4-2.7-7.7-6.5-10.4c-0.1-0.1-0.2-0.2-0.3-0.2C71.8,64.5,73.2,63.4,74.4,61.9z M50,13.7
	c3.5,4.6,11.4,16.1,11.4,28.2c0,7.7-4.6,16-11.4,16c-7.4,0-11.4-8.3-11.4-16C38.5,30.3,46.4,18.4,50,13.7z M23.5,50.1
	c-1.8-3.2-3.6-6.4-5.4-9.1c3.4,0.2,8,1.2,10.4,4.8c0.7,1,1.4,2.3,2.1,3.6c2.1,4,4.9,9,9.7,12.6c-3.7,0.7-8.5,0.8-11.2-2.8
	C27.3,56.9,25.5,53.6,23.5,50.1z M36.6,77.8c-3.5,3.5-8.6,5.1-12.2,5.9c1.1-2.2,1.8-4.3,2.5-6.2c1.3-3.7,2.3-6.4,4.9-8.3
	c0.8-0.6,2.6-1.6,4.4-1.6c0.8,0,1.7,0.2,2.4,0.8c0.7,0.6,1.1,1.5,1.1,2.6C39.7,73.2,38.4,75.9,36.6,77.8z M49.9,86.2
	c-2.1-2.9-5.4-8.4-5.4-14.1c0-3.8,2.2-8,5.4-8c3.5,0,5.4,4.1,5.4,8C55.3,77.5,52,83.1,49.9,86.2z M73,77.5c0.7,1.9,1.4,4,2.5,6.2
	c-3.6-0.8-8.7-2.4-12.2-5.9c-1.9-1.9-3.1-4.6-3-6.8c0-1.1,0.4-2,1.1-2.6c0.7-0.6,1.5-0.8,2.4-0.8c1.8,0,3.6,1,4.4,1.6
	C70.7,71.1,71.7,73.8,73,77.5z M59.5,62c4.8-3.5,7.5-8.6,9.7-12.6c0.7-1.4,1.4-2.7,2.1-3.6c2.4-3.6,7-4.6,10.4-4.8
	c-1.9,2.7-3.6,5.9-5.4,9.1c-1.9,3.5-3.8,6.8-5.5,9.1C68,62.8,63.2,62.7,59.5,62z"/>
</svg>
