<?xml version="1.0" encoding="utf-8"?>
<!-- Generator: Adobe Illustrator 22.1.0, SVG Export Plug-In . SVG Version: 6.00 Build 0)  -->
<svg version="1.1" id="Layer_1" xmlns="http://www.w3.org/2000/svg" xmlns:xlink="http://www.w3.org/1999/xlink" x="0px" y="0px"
	 viewBox="0 0 100 125" style="enable-background:new 0 0 100 125;" xml:space="preserve">
<path id="beans" fill="#694e19"  d="M74.5,36.2c-4.6,8-13,15.1-18,12.2c-1.9-1.1-0.6-2.2,0.8-4.3c0.7-1,1.2-2.4,2.1-3.8c1.4-2.2,2.5-3,3.9-5.6
	c0.7-1.2,1.1-2.7,1.8-3.9c0.7-1.2,1.4-2.4,2.1-3.6c1.5-2.5,2-2.4,2.8-4.9c0.5-1.5,1-2.2,1.5-3.3c0.6-1.3,1-3.2,1.7-4.4
	c0.6-0.9,1.2-1.4,2.9-0.7C81.1,16.9,79.1,28.2,74.5,36.2z M52.5,24.8c-4.6,8-6.3,18.9-0.9,22c1.9,1.1,2.4-0.5,3.4-2.8
	c0.5-1.1,1.3-2.3,2.1-3.8c1.2-2.4,1.3-3.7,2.8-6.2c0.7-1.2,1.8-2.4,2.4-3.5c0.7-1.2,1.3-2.4,2-3.7c1.4-2.5,1-2.9,2.8-4.9
	c1.1-1.2,1.4-1.9,2.1-2.9c0.8-1.2,2-2.6,2.6-3.9c0.4-1,0.9-1.6-0.6-2.6C66.1,9.5,57,16.8,52.5,24.8z M37.3,37
	c-1.2-0.3-1.6,0.2-1.9,0.8c-0.4,0.9-0.4,2.3-0.6,3.3c-0.2,0.8-0.5,1.3-0.6,2.4c-0.2,1.8-0.6,1.8-1.3,3.7c-0.3,0.9-0.7,1.9-1,2.8
	c-0.3,0.9-0.4,2-0.7,2.9c-0.6,1.9-1.3,2.6-2,4.3c-0.5,1.1-0.6,2.1-0.9,2.9c-0.7,1.6-1.5,2.6,0,3.1c3.8,1.3,8.7-4.6,10.9-10.8
	C41.1,46.4,41.1,38.4,37.3,37z M22.3,47.5c-2.1,6.1-1.9,13.9,2.2,15.3c1.4,0.5,1.6-0.7,2-2.4c0.2-0.8,0.6-1.8,1-2.9
	c0.5-1.8,0.4-2.7,1.1-4.6c0.3-0.9,0.9-1.9,1.2-2.8c0.3-0.9,0.6-1.8,0.9-2.8c0.6-1.9,0.3-2.2,1.3-3.7c0.6-0.9,0.7-1.5,1-2.3
	c0.4-0.9,1-2.1,1.3-3c0.2-0.7,0.4-1.2-0.7-1.8C29.8,35.2,24.4,41.4,22.3,47.5z M51.6,53.4c-1.4,0.6-1.4,1.4-1.2,2.3
	c0.3,1.2,1.3,2.5,1.9,3.6c0.4,1,0.6,1.7,1.3,2.8c1.2,1.9,0.8,2.2,1.6,4.6c0.4,1.2,0.7,2.3,1.1,3.4c0.4,1.1,1.1,2.3,1.5,3.4
	c0.9,2.3,0.8,3.5,1.4,5.7c0.4,1.4,1.1,2.5,1.3,3.5c0.5,2.1,0.6,3.6,2.3,3c4.7-1.6,4.9-11.2,2.3-18.7S56.3,51.8,51.6,53.4z
	 M45.1,74.9C47.8,82.4,53.9,89.8,59,88c1.8-0.6,1-1.8,0.1-3.8c-0.4-1-0.7-2.2-1.3-3.5c-0.9-2.1-1.7-3-2.4-5.3
	c-0.4-1.2-0.5-2.5-0.9-3.6s-0.8-2.2-1.3-3.4c-0.9-2.3-1.3-2.3-1.6-4.6c-0.2-1.4-0.5-2-0.7-3c-0.3-1.2-0.6-2.8-1.1-3.9
	c-0.4-0.8-0.5-1.5-2.1-1.1C43,57.3,42.5,67.4,45.1,74.9z"/>
</svg>
