<?xml version="1.0" encoding="utf-8"?>
<!-- Generator: Adobe Illustrator 22.1.0, SVG Export Plug-In . SVG Version: 6.00 Build 0)  -->
<svg version="1.1" id="Layer_1" xmlns="http://www.w3.org/2000/svg" xmlns:xlink="http://www.w3.org/1999/xlink" x="0px" y="0px"
	 viewBox="0 0 96.4 115.4" style="enable-background:new 0 0 96.4 115.4;" xml:space="preserve">
<style type="text/css">
	.st0{fill:#5E0B17;}
</style>
<path class="st0" d="M87.2,51.8c-4-13-10.3-17.1-11.3-17.7c-1.7-0.9-3.7-0.7-5.2,0.4l-5,3.8c-0.3-3-0.7-6.3-1.4-9.8
	c-0.9-4.8-2.3-9.6-4.7-13.7c-1.2-2.1-2.7-4-4.8-5.5c-2-1.5-4.7-2.5-7.4-2.4c-0.3,0-0.6,0-0.9,0c-1.3,0.1-2.5,0.6-3.4,1.3
	c-1.6,1.3-2.3,2.6-2.8,3.8c-0.9,2.2-1.4,4.5-2,7c-0.7,3.7-1.4,7.7-2.3,10.3c-0.1,0.4-0.2,0.7-0.4,1c-1-1.2-2.2-2.7-3.3-4
	c-0.6-0.7-1-1.3-1.5-1.8c-0.3-0.3-0.5-0.5-0.8-0.8c-0.2-0.2-0.4-0.3-0.8-0.6c-0.4-0.2-0.9-0.7-2.7-0.8c-0.7,0-2.1,0.2-3.2,1.2
	c-0.3,0.3-0.6,0.6-0.8,0.9c-0.6,0.7-2.6,2.8-4.7,5.8c-2.3,3.3-5,7.8-7.1,13.5c-3.5,9.6-4.3,16.4-4.3,20.6c0,2,0.2,3.4,0.3,4.1
	C8,85.2,19,98.9,34.1,104.3c0.5,0.2,1.1,0.3,1.6,0.3h24.2c0.5,0,1.1-0.1,1.6-0.3c14.7-5.2,25.6-18.4,27.3-34.5
	c0.1-0.5,0.3-2.3,0.3-5C89.1,61.5,88.7,56.8,87.2,51.8z M38,86.8c0,0-0.5-2.2,1.1-6.6c1.2-3.4,3.3-5.3,3.3-5.4
	c0.1-0.2,1.9,2.4,2.4,2.6c2.6,1.1,2.1-7.1,3.7-7.2c4.3-0.3,4.3,10.6,4.3,10.6l3.6-2.8c0,0,1.6,0.8,2.7,4.4c0.8,2.5,0.4,4.7,0.4,4.7
	c-0.3,3.1-2,5.9-4.5,7.6H42.5C40,93,38.3,90.1,38,86.8z M79.3,67.6c0,0.3-0.1,0.6-0.1,0.7c0,0.2,0,0.2,0,0.2l0,0.2
	c-1,9.5-6.3,17.8-13.9,22.9c1.3-2.3,2.2-5,2.5-7.8c0,0,0.6-4.3-0.8-9c-2.1-6.7-5.1-8.3-5.1-8.3l-6.9,5.2c0,0,0-20.8-8.2-20.2
	c-2.9,0.2-2,15.7-7,13.7c-0.9-0.4-4.4-5.3-4.5-4.9c-0.1,0.2-4,3.8-6.4,10.3c-3.1,8.5-2.1,12.6-2.1,12.6c0.2,2.7,0.9,5.2,2,7.5
	C21.8,85.3,17,77,16.3,67.6l-0.1-0.7l0,0c0,0,0,0,0,0c0-0.1,0-0.2-0.1-0.5c0-0.4-0.1-1-0.1-1.9c0-3,0.5-8.7,3.7-17.2
	c1.9-5.2,4.4-9.3,6.5-12.1c0.1-0.2,0.2-0.3,0.3-0.5c0.5,0.7,1.1,1.3,1.6,2c0.6,0.7,1.2,1.3,1.7,1.9c0.7,0.6,0.9,1.1,2.6,1.9
	c1,0.4,2.2,0.7,3.4,0.7c2.3,0,4.5-1.2,5.7-2.5c2.2-2.4,3.1-5,3.9-7.7c1.1-4,1.8-8.5,2.6-11.8c0.2-0.8,0.4-1.6,0.6-2.2
	c0.1,0.1,0.2,0.1,0.3,0.2c1.1,0.7,2.6,2.9,3.7,5.9c3.5,9.1,3.7,24.4,3.7,24.6c0,0.5,0.1,0.9,0.1,1.2c0.4,1.6,1.6,2.9,3.1,3.4
	c1.5,0.5,3.3,0.3,4.5-0.7l9-6.8c1.3,1.8,3.1,4.8,4.7,9.9c1.2,3.7,1.5,7.5,1.4,10.1C79.4,66,79.3,67,79.3,67.6z"/>
</svg>
