<?xml version="1.0" encoding="utf-8"?>
<!-- Generator: Adobe Illustrator 22.1.0, SVG Export Plug-In . SVG Version: 6.00 Build 0)  -->
<svg version="1.1" id="Layer_1" xmlns="http://www.w3.org/2000/svg" xmlns:xlink="http://www.w3.org/1999/xlink" x="0px" y="0px"
	 viewBox="0 0 50 62.5" style="enable-background:new 0 0 50 62.5;" xml:space="preserve">
<path id="hummingbird" fill="#46ab89" d="M48.2,24c0.3-0.6-0.1-1.4-0.7-1.6c-2.9-1.1-6-1.7-7.3-1.9c-1-1.2-3.7-4.2-6.6-4.2c-1.9,0-3,1-3.9,1.8
	c-0.8,0.7-1.3,1.2-2.4,1.2h-0.2c-0.8,0-1.9,0-3.3,0.3c-1.3-1.3-2.2-2.6-3.2-4.1s-1.9-3-3.5-4.6C13,6.4,3.7,3.3,3.4,3.2
	C3,3.1,2.5,3.2,2.2,3.4C1.9,3.6,1.7,4,1.7,4.4s0.4,9.1,5,15.7c1.6,2.3,4.5,4,7.5,5.3c-2.6,2.9-4.3,6.6-4.3,13c0,3.1,1.1,6.9,1.1,7
	c0.1,0.4,0.4,0.7,0.8,0.8c0.1,0,1.6,0.6,3.9,0.6c0.1,0,0.1,0,0.2,0c2.3,0,5.8-0.7,9.1-3.7c0.3-0.3,0.5-0.7,0.4-1.2
	c-0.1-0.4-0.4-0.8-0.8-0.9c-0.1,0-2.6-1-3.4-5.1c3.9-0.7,6.6-3.9,8.8-6.6l0.1-0.1c2.5-3.1,7.3-6.3,9.4-6.3c0.6,0.1,4.1,0.6,7.1,1.8
	c0.2,0.1,0.3,0.1,0.5,0.1C47.5,24.8,48,24.5,48.2,24z M28.1,27.6L28,27.8c-2.4,2.9-4.8,5.8-8.2,5.8c-0.3,0-0.7,0.1-0.9,0.4
	c-0.2,0.3-0.4,0.6-0.3,0.9c0.3,4.1,2.1,6.3,3.4,7.4c-1.8,1.3-3.9,1.9-6.1,2c-1.1,0-2-0.1-2.6-0.3c-0.3-1.2-0.8-3.7-0.8-5.7
	c0-6.2,1.6-9.3,4.3-12.1c1.2,0.4,2.5,0.7,3.6,0.9c0.1,0,0.2,0,0.2,0c0.6,0,1.1-0.4,1.2-1c0.1-0.7-0.3-1.3-1-1.5
	c-4.4-0.9-9.9-3.1-12-6.1c-3-4.2-4-9.6-4.4-12.4c2.8,1.1,8.3,3.4,11,6.2c1.4,1.4,2.3,2.8,3.2,4.2c1.4,2.2,2.9,4.6,6.1,6.5
	c0.6,0.4,1.4,0.2,1.7-0.4c0.2-0.4,0.2-0.8,0.1-1.2c0.2,0,0.4,0,0.6,0h0.2c2.1,0,3.2-1,4.1-1.8c0.8-0.7,1.3-1.1,2.2-1.1
	c1.2,0,2.6,1.1,3.6,2.1C34,22.1,30.1,25.2,28.1,27.6z"/>
</svg>
