<?xml version="1.0" encoding="utf-8"?>
<!-- Generator: Adobe Illustrator 22.1.0, SVG Export Plug-In . SVG Version: 6.00 Build 0)  -->
<svg version="1.1" id="Layer_1" xmlns="http://www.w3.org/2000/svg" xmlns:xlink="http://www.w3.org/1999/xlink" x="0px" y="0px"
	 viewBox="0 0 24 30" style="enable-background:new 0 0 24 30;" xml:space="preserve">
<path id="night" fill="#DAA520" d="M18,10c-0.5-2.8-3-4.9-5.9-4.9c-2.4,0-4.5,1.4-5.4,3.5C6.1,7.8,5.8,6.9,5.8,5.8C5.8,5,6,4.1,6.5,3.4c0.2-0.3,0.1-0.6,0-0.8
	C6.3,2.3,6,2.2,5.7,2.3C2.9,3.1,1,5.6,1,8.5c0,1.2,0.3,2.2,0.8,3.2C1.3,12.5,1,13.5,1,14.6c0,3.1,2.5,5.6,5.6,5.6
	c0.9,0,1.8-0.2,2.6-0.7c0.8,1.5,2.4,2.4,4.2,2.4c2,0,3.8-1.2,4.5-3c2.6,0.3,4.9-1.8,4.9-4.4C22.6,11.9,20.6,9.9,18,10z M4.5,4.5
	C4.4,4.9,4.3,5.4,4.3,5.8c0,3.4,2.8,6.2,6.2,6.2c0.1,0,0.3,0,0.4,0c-0.9,0.9-2.2,1.4-3.5,1.4c-2.7,0-4.9-2.2-4.9-4.9
	C2.5,6.9,3.2,5.4,4.5,4.5z M17.5,17.3c-0.2-0.1-0.4,0-0.6,0.1c-0.2,0.1-0.3,0.3-0.3,0.5c-0.4,1.5-1.7,2.6-3.2,2.6
	c-1.4,0-2.7-0.9-3.2-2.3c-0.1-0.2-0.3-0.4-0.5-0.5c-0.2-0.1-0.5,0-0.7,0.1c-0.7,0.6-1.6,0.8-2.5,0.8c-2.3,0-4.1-1.8-4.1-4.1
	c0-0.6,0.1-1.1,0.3-1.6c1.2,1.2,2.8,2,4.6,2c2.5,0,4.8-1.5,5.8-3.7c0.1-0.3,0.1-0.6-0.1-0.8c-0.2-0.2-0.5-0.3-0.8-0.2
	c-0.6,0.2-1.2,0.4-1.8,0.4c-1,0-1.9-0.3-2.6-0.8c0.6-1.9,2.3-3.1,4.3-3.1c2.4,0,4.4,1.9,4.5,4.3c0,0.2,0.1,0.4,0.3,0.6
	c0.2,0.1,0.4,0.2,0.6,0.1c1.9-0.5,3.6,1,3.6,2.9C21.2,16.3,19.4,17.8,17.5,17.3z"/>
</svg>
