<svg xmlns="http://www.w3.org/2000/svg" xmlns:xlink="http://www.w3.org/1999/xlink" xml:space="preserve" version="1.1" style="shape-rendering:geometricPrecision;text-rendering:geometricPrecision;image-rendering:optimizeQuality;" viewBox="0 0 1000 1250" x="0px" y="0px" fill-rule="evenodd" clip-rule="evenodd"><defs><style type="text/css">
   
    .fil0 {fill:black}
   
  </style></defs><g><path class="fil0" d="M500 5c273,0 495,222 495,495 0,273 -222,495 -495,495 -273,0 -495,-222 -495,-495 0,-273 222,-495 495,-495zm-135 806c-9,5 -21,2 -26,-8 -5,-9 -2,-21 8,-26 41,-22 30,-129 18,-241 -9,-77 -17,-156 -9,-219 10,-85 48,-141 146,-129 7,1 14,3 21,5 21,7 41,22 56,43 14,21 23,48 19,81 -2,10 -4,21 -8,33 -4,10 -8,19 -13,28 15,7 28,17 40,30 19,20 33,47 40,76 8,29 9,61 2,89 -19,72 -87,126 -232,89 -6,-1 -11,-6 -13,-11 3,76 -6,137 -49,160zm39 -289c4,36 8,73 10,106 3,-10 13,-16 24,-13 117,30 171,-9 184,-61 6,-23 5,-47 -1,-70 -6,-23 -17,-44 -31,-59 -10,-12 -23,-20 -37,-23 -8,9 -16,16 -23,21 -10,7 -19,12 -28,14 -12,4 -23,3 -31,-4 -6,-4 -10,-10 -12,-17 -2,-7 0,-15 5,-19l0 0c25,-23 50,-34 73,-36 7,-10 13,-21 17,-34 4,-8 6,-17 7,-25 2,-22 -3,-40 -13,-54 -9,-14 -23,-24 -36,-28 -5,-2 -9,-3 -13,-3 -69,-9 -96,33 -104,95 -7,59 1,136 9,210z"/></g><text x="0" y="1015" fill="#000000" font-size="5px" font-weight="bold" font-family="'Helvetica Neue', Helvetica, Arial-Unicode, Arial, Sans-serif">Created by Dyah Kusumaningrum</text><text x="0" y="1020" fill="#000000" font-size="5px" font-weight="bold" font-family="'Helvetica Neue', Helvetica, Arial-Unicode, Arial, Sans-serif">from the Noun Project</text></svg>