<?xml version="1.0" encoding="utf-8"?>
<!-- Generator: Adobe Illustrator 22.1.0, SVG Export Plug-In . SVG Version: 6.00 Build 0)  -->
<svg version="1.1" id="Layer_1" xmlns="http://www.w3.org/2000/svg" xmlns:xlink="http://www.w3.org/1999/xlink" x="0px" y="0px"
	 viewBox="0 0 100 125" style="enable-background:new 0 0 100 125;" xml:space="preserve">
<title>Artboard 249</title>
<g>
	<path id="ocean" fill="#3F93AA" d="M15.3,68.8l9.2,9.2l-9.2,9.2c-1.6,1.6-1.6,4,0,5.6c0.8,0.8,1.8,1.2,2.8,1.2s2-0.4,2.8-1.2l9-9l0.4,0.4
		c5.8,6.2,13.6,9.8,21.8,9.8s16-3.6,21.8-9.8l3.2-3.6c1.4-1.6,1.4-3.8,0-5.4l-3.2-3.6c-5.8-6-13.6-9.6-21.8-9.6s-16,3.6-21.8,9.8
		l-0.4,0.4l-9-9c-1.6-1.6-4-1.6-5.6,0S13.7,67.2,15.3,68.8z M35.5,78l0.8-0.8c4.2-4.6,9.8-7.2,15.8-7.2s11.6,2.6,15.8,7.2l0.8,0.8
		l-0.8,0.8c-4.2,4.6-9.8,7.2-15.8,7.2s-11.6-2.6-15.8-7.2L35.5,78z"/>
	<path id="ocean" fill="#000787" d="M6.1,14c1.8,0,2.6-0.8,4.4-2.8C12.5,9,15.3,6,20.7,6s8.2,3,10.2,5.2c1.8,2,2.6,2.8,4.4,2.8s2.6-0.8,4.4-2.8
		C41.7,9,44.5,6,49.9,6s8.2,3,10.2,5.2c1.8,2,2.6,2.8,4.4,2.8c1.8,0,2.6-0.8,4.4-2.8C70.9,9,73.7,6,79.1,6s8.2,3,10.2,5.2
		c1.8,2,2.6,2.8,4.4,2.8c2.2,0,4,1.8,4,4s-1.8,4-4,4c-5.4,0-8.2-3-10.2-5.2c-1.8-2-2.6-2.8-4.4-2.8s-2.6,0.8-4.4,2.8
		c-2,2.2-4.8,5.2-10.2,5.2s-8.2-3-10.2-5.2c-1.8-2-2.6-2.8-4.4-2.8s-2.6,0.8-4.4,2.8c-2,2.2-4.8,5.2-10.2,5.2s-8.2-3-10.2-5.2
		c-1.8-2-2.6-2.8-4.4-2.8s-2.6,0.8-4.4,2.8C14.3,19,11.5,22,6.1,22c-2.2,0-4-1.8-4-4S3.9,14,6.1,14z"/>
	<circle id="ocean" fill="#3F93AA" cx="86.1" cy="62" r="4"/>
	<circle id="ocean" fill="#3F93AA" cx="76.1" cy="44" r="6"/>
	<path id="ocean" fill="#3F93AA" d="M7.7,37.2l6.6,4.8l-6.6,4.8c-1.8,1.2-2.2,3.8-0.8,5.6c0.8,1,2,1.6,3.2,1.6c0.8,0,1.6-0.2,2.4-0.8l8.2-6l0,0
		c4.6,4.4,10.6,6.8,16.8,6.8s12.4-2.4,16.8-6.8l2.4-2.4c0.8-0.8,1.2-1.8,1.2-2.8s-0.4-2.2-1.2-2.8l-2.4-2.4
		C49.7,32.4,43.7,30,37.5,30s-12.4,2.4-16.8,6.8l0,0l-8.2-6c-1.8-1.4-4.2-1-5.6,0.8C5.5,33.4,5.9,36,7.7,37.2z M26.9,42
		c5.8-5.2,15.6-5.2,21.4,0C42.5,47.2,32.7,47.2,26.9,42z"/>
</g>
</svg>
