<?xml version="1.0" encoding="utf-8"?>
<!-- Generator: Adobe Illustrator 22.1.0, SVG Export Plug-In . SVG Version: 6.00 Build 0)  -->
<svg version="1.1" id="Layer_1" xmlns="http://www.w3.org/2000/svg" xmlns:xlink="http://www.w3.org/1999/xlink" x="0px" y="0px"
	 viewBox="0 0 16 20" style="enable-background:new 0 0 16 20;" xml:space="preserve">
<g>
	<path id="thunder" fill="#CCCCCC" d="M13,11h-1.5c-0.3,0-0.5-0.2-0.5-0.5s0.2-0.5,0.5-0.5H13c1.1,0,2-0.9,2-2s-0.9-2-2-2c-0.1,0-0.3,0-0.4,0
		c-0.1,0-0.3,0-0.4-0.1C12.1,5.9,12,5.7,12,5.6C11.8,3.5,10.1,2,8,2C6.3,2,4.8,3.1,4.2,4.7C4.1,4.9,3.9,5.1,3.6,5c0,0-0.1,0-0.1,0
		C2.1,5,1,6.1,1,7.5C1,8.9,2.1,10,3.5,10h1C4.8,10,5,10.2,5,10.5S4.8,11,4.5,11h-1C1.6,11,0,9.4,0,7.5C0,5.6,1.5,4,3.4,4
		C4.2,2.2,6,1,8,1c2.4,0,4.4,1.7,4.9,4C14.6,5,16,6.3,16,8C16,9.7,14.7,11,13,11z"/>
	<path id="thunder" fill="#FFF787" d="M7.5,16C7.5,16,7.4,16,7.5,16C7.2,15.9,7,15.7,7,15.5V13H5.5c-0.2,0-0.3-0.1-0.4-0.2C5,12.6,5,12.5,5,12.3l2-5
		C7.1,7.1,7.4,7,7.6,7C7.8,7.1,8,7.3,8,7.5V10h1.5c0.2,0,0.3,0.1,0.4,0.2s0.1,0.3,0.1,0.5l-2,5C7.9,15.9,7.7,16,7.5,16z M6.2,12h1.3
		C7.8,12,8,12.2,8,12.5v0.4L8.8,11H7.5C7.2,11,7,10.8,7,10.5v-0.4L6.2,12z"/>
</g>
<path id="thunder" fill="#ffffff" d="M13,6c-0.2,0-0.4,0-0.7-0.1c-0.3-0.1-0.4-0.3-0.4-0.6C12,5.1,12.3,4.9,12.6,5c0.1,0,0.3,0,0.4,0c0.9,0,1.7-0.7,1.9-1.6
	c-0.1,0-0.3,0.1-0.4,0.1c-1.1,0-2-0.9-2-2c0-0.2,0-0.3,0.1-0.4c-0.7,0.2-1.3,0.7-1.5,1.4c-0.1,0.3-0.4,0.4-0.6,0.3
	c-0.3-0.1-0.4-0.4-0.3-0.6C10.5,0.9,11.7,0,13,0c0.2,0,0.3,0,0.5,0c0.2,0,0.3,0.2,0.4,0.3s0,0.4-0.1,0.5c-0.2,0.2-0.2,0.4-0.2,0.6
	c0,0.6,0.4,1,1,1c0.2,0,0.5-0.1,0.6-0.2c0.1-0.1,0.3-0.2,0.5-0.1c0.2,0.1,0.3,0.2,0.3,0.4c0,0.1,0,0.3,0,0.5C16,4.7,14.7,6,13,6z"/>
</svg>
